<svg width="24" height="24" viewBox="0 0 24 24" fill="none" xmlns="http://www.w3.org/2000/svg">
<path d="M17.7366 14.6219L15.3106 16.8525C14.0631 17.94 12.5975 18.748 11.0121 19.2224L11.6558 22.2256C11.6887 22.3789 11.7572 22.5224 11.8557 22.6444C11.9543 22.7664 12.0801 22.8635 12.2231 22.9279C12.3661 22.9923 12.5222 23.0222 12.6789 23.0151C12.8356 23.008 12.9884 22.9642 13.125 22.8872L17.0303 20.6846C17.5799 20.3506 18.0093 19.8507 18.2564 19.2569C18.5035 18.6631 18.5557 18.0062 18.4053 17.3809L17.7366 14.6219ZM7.26562 8.77588L9.35431 6.296L6.74951 5.66752C6.11625 5.4467 5.42448 5.4625 4.80196 5.712C4.17945 5.9615 3.66825 6.42785 3.36279 7.0249L1.1626 10.9248C1.08551 11.0614 1.04163 11.2142 1.03453 11.3709C1.02742 11.5276 1.05727 11.6838 1.12168 11.8268C1.18609 11.9698 1.28324 12.0957 1.40528 12.1942C1.52732 12.2927 1.67084 12.3612 1.82422 12.394L4.89697 13.0527C5.40638 11.489 6.2104 10.0373 7.26562 8.77588ZM16.7337 8.81626C17.0304 8.81626 17.3204 8.72829 17.5671 8.56346C17.8138 8.39864 18.006 8.16437 18.1195 7.89028C18.2331 7.6162 18.2628 7.3146 18.2049 7.02362C18.147 6.73265 18.0042 6.46538 17.7944 6.2556C17.5846 6.04582 17.3173 5.90296 17.0264 5.84508C16.7354 5.7872 16.4338 5.81691 16.1597 5.93044C15.8856 6.04397 15.6513 6.23623 15.4865 6.4829C15.3217 6.72958 15.2337 7.01959 15.2337 7.31626C15.2339 7.71404 15.392 8.09549 15.6732 8.37676C15.9545 8.65803 16.3359 8.81611 16.7337 8.81626Z" fill="#F9D58F"/>
<path d="M22.6011 2.062C22.556 1.89072 22.4662 1.73448 22.3409 1.60924C22.2157 1.484 22.0595 1.39423 21.8882 1.34911C19.8368 0.815876 17.6766 0.873055 15.6563 1.51406C13.636 2.15506 11.8379 3.35381 10.4692 4.97217L7.26562 8.77588C5.66523 10.6847 4.64997 13.015 4.3418 15.4868C4.32204 15.6387 4.33743 15.7931 4.38678 15.9382C4.43613 16.0832 4.51814 16.2149 4.62646 16.3232L7.72656 19.4233C7.81938 19.5162 7.92959 19.5899 8.0509 19.6402C8.17221 19.6905 8.30224 19.7163 8.43356 19.7163C8.46237 19.7163 8.49118 19.7149 8.52048 19.7124C11.0302 19.505 13.4086 18.5033 15.3105 16.8526L18.9736 13.4844C20.5977 12.1193 21.8008 10.3211 22.443 8.299C23.0851 6.27691 23.14 4.11404 22.6011 2.062ZM16.7337 8.81622C16.437 8.81622 16.147 8.72825 15.9003 8.56342C15.6537 8.3986 15.4614 8.16433 15.3479 7.89024C15.2343 7.61616 15.2046 7.31456 15.2625 7.02358C15.3204 6.73261 15.4633 6.46534 15.673 6.25556C15.8828 6.04578 16.1501 5.90292 16.4411 5.84504C16.732 5.78716 17.0336 5.81687 17.3077 5.9304C17.5818 6.04393 17.8161 6.23619 17.9809 6.48286C18.1457 6.72954 18.2337 7.01955 18.2337 7.31622C18.2336 7.714 18.0755 8.09545 17.7942 8.37672C17.5129 8.658 17.1315 8.81608 16.7337 8.81622Z" fill="#E9A625"/>
</svg>
