<svg width="84" height="84" viewBox="0 0 84 84" fill="none" xmlns="http://www.w3.org/2000/svg">
<path d="M20 0C8.97733 0 0 8.97733 0 20V64C0 75.0227 8.97733 84 20 84H64C75.0227 84 84 75.0227 84 64V20C84 8.97733 75.0227 0 64 0H20ZM28.0117 16.0859C29.2677 16.1399 30.4212 16.8476 31.1172 17.9336C31.9092 19.1696 33.1383 21.0878 34.7383 23.5898C36.1983 25.8718 36.3001 28.8192 34.9961 31.1992L32.0664 35.3672C31.2744 36.4952 31.1164 37.9389 31.6484 39.2109C32.4764 41.1909 34.0816 44.2339 36.9336 47.0859C39.7856 49.9379 42.8286 51.5431 44.8086 52.3711C46.0806 52.9031 47.5243 52.7451 48.6523 51.9531L52.8203 49.0234C55.2003 47.7194 58.1477 47.8233 60.4297 49.2812C62.9317 50.8813 64.8499 52.1103 66.0859 52.9023C67.1719 53.5983 67.8796 54.7518 67.9336 56.0078C68.2416 63.1358 62.7193 66.0234 61.1133 66.0234C60.0013 66.0234 46.6327 67.5428 31.5547 52.4648C16.4767 37.3868 17.9961 24.0182 17.9961 22.9062C17.9961 21.3003 20.8837 15.7779 28.0117 16.0859Z" fill="#2CD997"/>
</svg>
